<svg preserveAspectRatio="none" overflow="visible" style="display: block;" width="24" height="24" viewBox="0 0 24 24" fill="none" xmlns="http://www.w3.org/2000/svg">
<g id="icon: downch">
<path id="Vector" d="M19.4996 8.29646C19.592 8.29646 19.6838 8.31483 19.7691 8.35017C19.8545 8.38553 19.9323 8.43718 19.9976 8.50251C20.0629 8.56783 20.1146 8.6457 20.15 8.73103C20.1852 8.8162 20.2036 8.90741 20.2037 8.99958C20.2037 9.09194 20.1853 9.18378 20.15 9.26911C20.1146 9.35447 20.063 9.4323 19.9976 9.49763L12.4976 16.9976C12.4323 17.063 12.3545 17.1146 12.2691 17.15C12.1838 17.1853 12.092 17.2037 11.9996 17.2037C11.9074 17.2036 11.8162 17.1853 11.731 17.15C11.6457 17.1146 11.5678 17.063 11.5025 16.9976L4.00251 9.49763C3.87057 9.36569 3.79646 9.18617 3.79646 8.99958C3.79657 8.81314 3.87067 8.63435 4.00251 8.50251C4.13435 8.37067 4.31314 8.29657 4.49958 8.29646C4.68617 8.29646 4.86569 8.37057 4.99763 8.50251L11.9664 15.4732L11.9996 15.5064L12.0328 15.4732L19.0025 8.50251C19.0678 8.43718 19.1457 8.38553 19.231 8.35017C19.3162 8.31491 19.4074 8.29651 19.4996 8.29646Z" fill="#333333" stroke="#333333" stroke-width="0.09375"/>
</g>
</svg>
