<svg preserveAspectRatio="none" overflow="visible" style="display: block;" width="48" height="48" viewBox="0 0 48 48" fill="none" xmlns="http://www.w3.org/2000/svg">
<g id="Frame">
<g clip-path="url(#clip0_0_4)">
<path id="Vector" fill-rule="evenodd" clip-rule="evenodd" d="M9.84375 0H38.1562C43.587 0.0144375 47.9855 4.413 48 9.84328V38.1562C47.9855 43.5867 43.587 47.9854 38.1566 47.9998L9.84375 48C4.41319 47.9854 0.014625 43.5867 0.0001875 38.1565L0 9.84375C0.014625 4.413 4.41319 0.0144375 9.84347 0H9.84375ZM39.2292 26.7683C39.1015 29.0508 37.1966 30.8261 34.911 30.7945H24.5317C24.0562 30.7897 23.6723 30.4041 23.6699 29.9291V18.7532C23.6626 18.5614 23.7135 18.3719 23.8158 18.2096C23.9181 18.0472 24.0671 17.9195 24.2432 17.8433C24.2432 17.8433 25.1979 17.1812 27.2088 17.1812C28.4373 17.1798 29.6433 17.5112 30.6987 18.1401C31.5222 18.6246 32.2362 19.2748 32.7955 20.0494C33.3548 20.8241 33.7473 21.7064 33.9481 22.6405C34.3063 22.5396 34.6769 22.4892 35.0491 22.4906C35.6073 22.4872 36.1605 22.5962 36.6756 22.8112C37.1908 23.0263 37.6573 23.3429 38.0474 23.7422C38.4377 24.1413 38.7435 24.615 38.9466 25.1349C39.1498 25.6549 39.246 26.2105 39.2297 26.7684L39.2292 26.7683ZM22.3745 19.4598C22.6875 23.2504 22.915 26.7077 22.3745 30.4857C22.3654 30.5682 22.3262 30.6444 22.2644 30.6998C22.2027 30.7551 22.1226 30.7858 22.0397 30.7858C21.9567 30.7858 21.8765 30.7552 21.8147 30.6999C21.7528 30.6445 21.7135 30.5682 21.7043 30.4857C21.2005 26.7397 21.42 23.2177 21.7043 19.4598C21.6973 19.3968 21.7083 19.3331 21.736 19.2761C21.7636 19.2191 21.8069 19.171 21.8607 19.1376C21.9145 19.1041 21.9765 19.0864 22.0398 19.0864C22.1031 19.0864 22.1651 19.1041 22.2188 19.1376C22.2725 19.1712 22.3156 19.2192 22.3431 19.2762C22.3706 19.3333 22.3815 19.3969 22.3745 19.4598ZM20.2744 30.4896C20.2617 30.5731 20.2195 30.6493 20.1554 30.7044C20.0913 30.7594 20.0096 30.7897 19.9252 30.7897C19.8406 30.7898 19.7588 30.7596 19.6946 30.7045C19.6305 30.6495 19.5882 30.5732 19.5756 30.4896C19.2001 27.2574 19.2001 23.9926 19.5756 20.7604C19.5849 20.6736 19.626 20.5934 19.6908 20.5351C19.7557 20.4768 19.8399 20.4445 19.9271 20.4444C20.0143 20.4445 20.0984 20.4768 20.1633 20.5352C20.2281 20.5935 20.2692 20.6737 20.2785 20.7604C20.6956 23.9901 20.6941 27.2602 20.2741 30.4896H20.2744ZM18.1696 20.4312C18.5106 23.9046 18.6657 27.0163 18.1659 30.4816C18.1659 30.571 18.1303 30.6567 18.0671 30.72C18.0039 30.7832 17.9181 30.8187 17.8287 30.8188C17.7393 30.8187 17.6537 30.7831 17.5905 30.7199C17.5273 30.6567 17.4918 30.571 17.4917 30.4816C17.008 27.0609 17.1704 23.8598 17.4917 20.4312C17.5006 20.3476 17.5402 20.2703 17.6029 20.2143C17.6655 20.1582 17.7466 20.1273 17.8307 20.1276C17.9147 20.1274 17.9958 20.1583 18.0584 20.2143C18.121 20.2704 18.1606 20.3477 18.1696 20.4312ZM16.062 30.494C16.0525 30.5785 16.0121 30.6566 15.9487 30.7133C15.8853 30.77 15.8032 30.8013 15.7181 30.8014C15.6331 30.8015 15.5511 30.7701 15.4878 30.7134C15.4245 30.6566 15.3844 30.5785 15.3753 30.494C14.9873 27.4784 14.9873 24.4256 15.3753 21.4101C15.3753 21.3174 15.4121 21.2286 15.4776 21.1631C15.5431 21.0976 15.632 21.0607 15.7246 21.0607C15.8172 21.0607 15.9061 21.0976 15.9716 21.1631C16.0371 21.2286 16.0739 21.3174 16.0739 21.4101C16.4861 24.4243 16.4819 27.4809 16.0615 30.494H16.062ZM13.9569 23.6813C14.4895 26.0367 14.2495 28.1173 13.9371 30.518C13.9247 30.5954 13.8852 30.6659 13.8256 30.7168C13.7659 30.7677 13.6901 30.7957 13.6117 30.7958C13.5333 30.7956 13.4576 30.7676 13.3981 30.7167C13.3386 30.6658 13.2991 30.5953 13.2868 30.518C13.0025 28.15 12.7667 26.0207 13.2665 23.6806C13.2666 23.5891 13.303 23.5013 13.3677 23.4366C13.4325 23.3719 13.5202 23.3354 13.6118 23.3353C13.6571 23.3353 13.7021 23.3443 13.744 23.3616C13.786 23.379 13.824 23.4045 13.8561 23.4366C13.8882 23.4687 13.9137 23.5068 13.931 23.5488C13.9483 23.5907 13.9573 23.6357 13.9572 23.6811L13.9569 23.6813ZM11.8568 23.3235C12.3446 25.7368 12.1859 27.7799 11.8444 30.2014C11.8041 30.5591 11.1909 30.5629 11.1582 30.2014C10.8493 27.8166 10.7032 25.7122 11.1457 23.3235C11.1553 23.2358 11.1969 23.1547 11.2626 23.0958C11.3283 23.0369 11.4134 23.0043 11.5016 23.0042C11.5898 23.0041 11.675 23.0366 11.7406 23.0956C11.8062 23.1546 11.8476 23.2358 11.8568 23.3235ZM9.73669 24.4934C10.2482 26.0941 10.0733 27.3946 9.71634 29.0353C9.7073 29.1168 9.66851 29.1921 9.60741 29.2467C9.54631 29.3014 9.4672 29.3316 9.38522 29.3316C9.30319 29.3315 9.22405 29.3013 9.16287 29.2467C9.10169 29.192 9.06274 29.1168 9.05344 29.0353C8.74472 27.4267 8.61956 26.0982 9.0255 24.4934C9.03473 24.4057 9.07615 24.3245 9.14176 24.2655C9.20736 24.2065 9.2925 24.174 9.38072 24.1741C9.46895 24.1739 9.55411 24.2065 9.61972 24.2655C9.68534 24.3244 9.72675 24.4057 9.73594 24.4934H9.73669Z" fill="black"/>
</g>
</g>
<defs>
<clipPath id="clip0_0_4">
<rect width="48" height="48" rx="8" fill="white"/>
</clipPath>
</defs>
</svg>
