<svg preserveAspectRatio="none" overflow="visible" style="display: block;" width="48" height="48" viewBox="0 0 48 48" fill="none" xmlns="http://www.w3.org/2000/svg">
<g id="vk-music-sign-logo 1">
<g clip-path="url(#clip0_0_6)">
<path id="Vector" d="M3.37418 3.37411C0.101009 6.64733 0.00308777 11.8558 0.000159914 22.0795C9.1624 22.0795 14.8828 18.1464 19.9006 14.6958C23.8206 12.0003 27.3119 9.59971 31.6799 9.59971C38.182 9.59971 43.859 14.1969 46.869 16.6344C47.2934 16.9781 47.6649 17.279 47.9783 17.5181C47.8833 10.2285 47.3721 6.12024 44.626 3.37411C41.2516 0 35.8214 0 24.9601 0H23.0401C12.1789 0 6.74834 0 3.37418 3.37411Z" fill="#0077FF"/>
<path id="Vector_2" d="M21.6289 47.9995C22.0889 48 22.5592 48 23.0401 48H24.9601C25.4411 48 25.9113 48 26.3712 47.9995H21.6289Z" fill="#0077FF"/>
<path id="Vector_3" d="M9.52128e-05 22.0795C9.16234 22.0795 14.8828 18.1464 19.9006 14.6958C23.8205 12.0003 27.3115 9.59971 31.68 9.59971C38.1816 9.59971 43.859 14.1969 46.8691 16.6344C47.2934 16.9781 47.665 17.279 47.9784 17.5181C48 19.1851 48 21.0182 48 23.04V24.96C48 35.821 48 41.2517 44.6261 44.6261C41.401 47.8507 36.2981 47.9933 26.3707 47.9995H21.6292C11.7021 47.9933 6.5989 47.8507 3.37411 44.6261C0 41.2517 0 35.821 0 24.96V23.04C0 22.715 0 22.3949 9.52128e-05 22.0795Z" fill="#F45FFF"/>
<path id="Vector_4" d="M37.2 24.468C37.2 23.2819 38.1739 22.32 39.36 22.32C40.5466 22.32 41.52 23.2819 41.52 24.468V33.132C41.52 34.3186 40.5466 35.28 39.36 35.28C38.1739 35.28 37.2 34.3186 37.2 33.132V24.468Z" fill="white"/>
<path id="Vector_5" d="M29.5205 18.948C29.5205 17.7619 30.4944 16.8 31.6805 16.8C32.8666 16.8 33.8405 17.7619 33.8405 18.948V38.652C33.8405 39.8386 32.8666 40.8 31.6805 40.8C30.4944 40.8 29.5205 39.8386 29.5205 38.652V18.948Z" fill="white"/>
<path id="Vector_6" d="M21.8405 24.468C21.8405 23.2819 22.8142 22.32 24.0005 22.32C25.1868 22.32 26.1605 23.2819 26.1605 24.468V33.132C26.1605 34.3181 25.1868 35.28 24.0005 35.28C22.8142 35.28 21.8405 34.3181 21.8405 33.132V24.468Z" fill="white"/>
<path id="Vector_7" d="M14.1595 27.588C14.1595 26.4014 15.1332 25.44 16.3195 25.44C17.5058 25.44 18.4795 26.4014 18.4795 27.588V30.012C18.4795 31.1981 17.5058 32.16 16.3195 32.16C15.1332 32.16 14.1595 31.1981 14.1595 30.012V27.588Z" fill="white"/>
<path id="Vector_8" d="M6.47952 27.588C6.47952 26.4014 7.4532 25.44 8.63952 25.44C9.82584 25.44 10.7995 26.4014 10.7995 27.588V30.012C10.7995 31.1981 9.82584 32.16 8.63952 32.16C7.4532 32.16 6.47952 31.1981 6.47952 30.012V27.588Z" fill="white"/>
</g>
</g>
<defs>
<clipPath id="clip0_0_6">
<rect width="48" height="48" rx="8" fill="white"/>
</clipPath>
</defs>
</svg>
